<svg width="17" height="17" viewBox="0 0 17 17" fill="none" xmlns="http://www.w3.org/2000/svg">
<path d="M14.4979 9.70667C14.5279 9.45667 14.5479 9.19666 14.5479 8.92666C14.5479 8.65666 14.5279 8.40666 14.4979 8.14666L16.1779 6.82666C16.3279 6.70666 16.3679 6.49667 16.2679 6.31667L14.6679 3.55667C14.5779 3.38667 14.3579 3.31667 14.1879 3.38667L12.1979 4.18667C11.7879 3.86667 11.3379 3.60666 10.8479 3.40666L10.5479 1.28666C10.5279 1.09666 10.3579 0.956665 10.1579 0.956665H6.95787C6.75787 0.956665 6.59787 1.09666 6.56787 1.28666L6.26787 3.40666C5.78787 3.60666 5.33787 3.87667 4.91787 4.18667L2.92787 3.38667C2.74787 3.31667 2.53787 3.38667 2.44787 3.55667L0.84787 6.31667C0.74787 6.48666 0.79787 6.70666 0.93787 6.82666L2.61787 8.14666C2.58787 8.39666 2.56787 8.66666 2.56787 8.92666C2.56787 9.18666 2.58787 9.44666 2.61787 9.70667L0.93787 11.0267C0.78787 11.1467 0.74787 11.3567 0.84787 11.5367L2.44787 14.2967C2.53787 14.4667 2.75787 14.5367 2.92787 14.4667L4.91787 13.6667C5.32787 13.9867 5.77787 14.2467 6.26787 14.4467L6.56787 16.5667C6.58787 16.7567 6.75787 16.8967 6.95787 16.8967H10.1579C10.3579 16.8967 10.5179 16.7567 10.5479 16.5667L10.8479 14.4467C11.3279 14.2467 11.7779 13.9767 12.1979 13.6667L14.1879 14.4667C14.3679 14.5367 14.5779 14.4667 14.6679 14.2967L16.2679 11.5367C16.3579 11.3667 16.3179 11.1467 16.1779 11.0267L14.4979 9.70667ZM8.55787 11.7167C7.01787 11.7167 5.75787 10.4667 5.75787 8.91666C5.75787 7.37666 7.00787 6.11666 8.55787 6.11666C10.0979 6.11666 11.3579 7.36666 11.3579 8.91666C11.3579 10.4567 10.1079 11.7167 8.55787 11.7167Z" fill="white"/>
</svg>
