<svg width="35" height="35" viewBox="0 0 35 35" fill="none" xmlns="http://www.w3.org/2000/svg">
<path fill-rule="evenodd" clip-rule="evenodd" d="M13.1702 8.66634C13.5587 8.77188 13.8228 9.10865 13.9863 9.47649L15.4773 12.8314C15.6715 13.2683 15.5884 13.8185 15.3357 14.2243C14.9248 14.8841 14.4584 15.7644 14.7871 16.4687C15.6112 18.2346 16.7524 19.3133 18.4741 20.1494C19.1775 20.491 20.0518 19.9895 20.7117 19.5699C21.0917 19.3282 21.6276 19.236 22.0375 19.4224L25.5344 21.0129C25.8955 21.1771 26.2256 21.4385 26.3313 21.8208C26.8865 23.8294 24.4617 26.4119 22.5883 26.4119C20.7497 26.4119 18.9292 26.0497 17.2307 25.3462C15.5321 24.6426 13.9888 23.6114 12.6888 22.3114C11.3887 21.0113 10.3575 19.468 9.65394 17.7694C8.95038 16.0709 8.58826 14.2504 8.58826 12.4119C8.58826 10.5413 11.1629 8.12096 13.1702 8.66634ZM13.86 13.3782L12.4892 10.2939C12.2023 10.3197 11.7535 10.4753 11.2361 10.921C10.5397 11.521 10.2883 12.1646 10.2883 12.4119C10.2883 14.0271 10.6064 15.6266 11.2245 17.1189C11.8427 18.6112 12.7487 19.9671 13.8908 21.1093C15.033 22.2514 16.3889 23.1575 17.8812 23.7756C19.3736 24.3937 20.973 24.7119 22.5883 24.7119C22.8361 24.7119 23.4812 24.4593 24.0815 23.7612C24.5295 23.2402 24.683 22.7898 24.7068 22.5041L21.5342 21.0611C21.199 21.2719 20.7098 21.5624 20.1671 21.751C19.5764 21.9561 18.6624 22.1307 17.7315 21.6786C15.6915 20.688 14.2506 19.3389 13.2466 17.1877C12.8248 16.2839 12.9751 15.3959 13.1672 14.8046C13.3516 14.2368 13.6433 13.7294 13.86 13.3782Z" fill="#111111"/>
<path fill-rule="evenodd" clip-rule="evenodd" d="M17.5001 35C27.1651 35 35.0001 27.165 35.0001 17.5C35.0001 7.83502 27.1651 0 17.5001 0C7.83514 0 0.00012207 7.83502 0.00012207 17.5C0.00012207 20.4163 0.713475 23.166 1.97521 25.5841C2.09476 25.8132 2.12826 26.0784 2.06137 26.328L0.0740868 33.7447C-0.125152 34.4883 0.555263 35.1687 1.29883 34.9694L8.74195 32.9751C8.99011 32.9086 9.25371 32.9413 9.48198 33.0592C11.8841 34.2995 14.6103 35 17.5001 35ZM33.0001 17.5C33.0001 26.0604 26.0605 33 17.5001 33C14.937 33 12.5247 32.3794 10.3996 31.2821C9.75052 30.9469 8.9765 30.8417 8.22432 31.0432L2.45423 32.5893L3.99323 26.8457C4.19597 26.089 4.08827 25.3104 3.74834 24.6589C2.6321 22.5196 2.00012 20.0866 2.00012 17.5C2.00012 8.93959 8.93971 2 17.5001 2C26.0605 2 33.0001 8.93959 33.0001 17.5Z" fill="#111111"/>
</svg>
